<?xml version="1.0" standalone="no"?>
<!DOCTYPE svg PUBLIC "-//W3C//DTD SVG 20010904//EN"
 "http://www.w3.org/TR/2001/REC-SVG-20010904/DTD/svg10.dtd">
<svg version="1.0" xmlns="http://www.w3.org/2000/svg"
 width="2083.000000pt" height="2083.000000pt" viewBox="0 0 2083.000000 2083.000000"
 preserveAspectRatio="xMidYMid meet">

<g transform="translate(0.000000,2083.000000) scale(0.100000,-0.100000)"
fill="#000000" stroke="none">
<path d="M10505 18774 c-22 -2 -119 -11 -215 -20 -96 -9 -177 -20 -180 -23 -3
-4 -61 -15 -130 -24 -181 -26 -400 -69 -400 -78 0 -5 -7 -9 -16 -9 -30 0 -354
-82 -354 -89 0 -4 -19 -13 -42 -20 -115 -33 -244 -75 -248 -82 -3 -3 -25 -14
-50 -22 -97 -33 -185 -69 -190 -77 -3 -5 -41 -22 -84 -40 -83 -32 -138 -59
-146 -69 -3 -3 -44 -26 -92 -49 -49 -24 -88 -47 -88 -51 0 -4 -17 -15 -37 -24
-57 -24 -135 -69 -154 -88 -10 -10 -33 -25 -53 -34 -19 -9 -47 -28 -61 -41
-14 -13 -28 -24 -31 -24 -9 0 -129 -85 -137 -97 -4 -7 -23 -23 -42 -36 -41
-28 -145 -121 -218 -195 -29 -29 -76 -76 -104 -105 -29 -29 -53 -58 -53 -64 0
-6 -13 -22 -29 -35 -25 -22 -121 -149 -121 -161 0 -3 -13 -19 -29 -36 -15 -17
-36 -46 -45 -65 -9 -19 -23 -41 -31 -49 -7 -8 -27 -40 -44 -70 -47 -88 -56
-102 -63 -107 -3 -3 -26 -48 -49 -100 -24 -52 -47 -97 -51 -100 -7 -6 -44
-100 -75 -190 -8 -25 -19 -47 -23 -50 -8 -6 -49 -131 -75 -231 -9 -35 -20 -66
-24 -69 -8 -5 -46 -170 -78 -335 -9 -49 -20 -91 -25 -93 -12 -5 -10 -142 2
-142 6 0 10 -6 10 -13 0 -7 12 -36 26 -64 19 -39 37 -59 72 -79 26 -15 49 -31
53 -36 13 -19 118 -39 353 -65 138 -15 253 -30 256 -33 3 -4 187 -26 410 -50
223 -24 407 -47 410 -50 3 -4 147 -22 321 -40 l315 -34 61 23 c80 30 152 99
193 185 16 36 30 72 30 81 0 8 4 15 8 15 5 0 19 48 32 108 27 126 65 245 80
250 5 2 10 10 10 18 0 24 81 182 96 188 8 3 14 10 14 16 0 21 95 143 166 214
66 67 193 166 212 166 4 0 15 9 25 20 9 11 56 39 104 63 49 23 91 46 94 50 7
9 145 62 204 78 22 6 42 14 45 18 5 8 159 42 280 63 100 17 415 14 550 -6 127
-19 240 -46 257 -62 7 -7 27 -15 44 -19 46 -10 157 -63 179 -85 11 -11 25 -20
31 -20 41 0 299 -250 299 -289 0 -6 4 -11 10 -11 14 0 44 -62 75 -160 16 -47
31 -87 35 -90 18 -13 73 -318 86 -476 4 -49 10 -91 15 -94 10 -7 29 -478 29
-716 l0 -181 -57 -6 c-32 -4 -249 -21 -483 -38 -234 -18 -427 -35 -430 -39 -3
-3 -97 -14 -210 -23 -291 -25 -634 -67 -638 -78 -2 -5 -16 -9 -30 -9 -40 0
-526 -82 -532 -89 -3 -4 -97 -26 -209 -49 -113 -23 -207 -45 -210 -50 -3 -4
-82 -27 -176 -50 -93 -24 -172 -46 -175 -51 -3 -4 -41 -18 -85 -31 -123 -35
-199 -61 -205 -69 -3 -4 -21 -12 -40 -18 -93 -29 -215 -76 -220 -83 -5 -8 -44
-24 -164 -71 -27 -10 -52 -22 -55 -27 -3 -5 -50 -30 -104 -56 -54 -26 -107
-56 -118 -67 -10 -10 -23 -19 -29 -19 -9 0 -110 -58 -120 -70 -10 -10 -90 -60
-97 -60 -5 0 -22 -12 -38 -27 -16 -16 -48 -40 -72 -55 -23 -15 -50 -35 -60
-45 -11 -10 -41 -35 -68 -55 -118 -88 -384 -353 -444 -442 -8 -11 -20 -24 -26
-28 -7 -4 -30 -33 -51 -64 -21 -31 -54 -73 -71 -92 -18 -20 -33 -41 -33 -47 0
-7 -12 -25 -26 -41 -29 -30 -78 -112 -95 -156 -6 -16 -15 -28 -19 -28 -5 0
-28 -39 -52 -87 -23 -49 -46 -90 -49 -93 -7 -5 -71 -158 -84 -200 -4 -13 -13
-29 -19 -35 -6 -7 -29 -72 -50 -146 -22 -74 -43 -136 -47 -139 -3 -3 -12 -30
-18 -60 -7 -30 -19 -84 -27 -120 -18 -86 -54 -315 -54 -351 0 -15 -4 -29 -9
-31 -14 -5 -31 -294 -31 -514 0 -202 17 -495 29 -504 4 -3 13 -55 20 -116 15
-132 76 -445 89 -453 5 -3 12 -19 16 -36 18 -75 81 -261 93 -273 7 -7 16 -25
20 -40 8 -32 63 -155 72 -162 4 -3 26 -42 49 -88 23 -46 51 -92 62 -104 10
-11 26 -36 36 -56 9 -19 29 -48 45 -65 16 -16 29 -33 29 -37 0 -9 45 -66 108
-139 56 -64 263 -271 271 -271 3 0 30 -23 60 -50 30 -28 56 -50 59 -50 2 0 21
-13 42 -30 21 -16 42 -30 47 -30 5 0 27 -16 49 -35 21 -19 42 -35 46 -35 8 0
111 -62 118 -71 3 -4 43 -26 90 -49 47 -23 87 -45 90 -49 6 -7 37 -19 160 -64
47 -17 87 -34 90 -38 8 -11 84 -34 210 -65 63 -15 117 -31 120 -35 6 -7 204
-43 320 -58 273 -36 719 -38 1117 -6 202 16 475 52 483 64 3 4 37 13 75 20
103 18 319 71 325 80 3 4 48 21 100 38 117 39 164 56 170 65 3 3 48 26 100 49
52 24 97 46 100 50 3 4 37 23 77 43 39 20 78 42 85 49 17 16 117 77 127 77 4
0 25 16 47 35 21 19 42 35 46 35 11 0 97 61 137 97 20 18 39 33 44 33 4 0 28
20 55 45 26 25 52 45 59 45 6 0 22 12 35 28 13 15 39 40 58 55 81 64 309 285
440 426 68 73 86 83 97 54 6 -16 70 -111 83 -123 15 -14 60 -80 60 -88 0 -4
16 -26 35 -48 20 -21 43 -53 51 -71 9 -18 26 -43 37 -56 28 -30 87 -115 87
-125 0 -4 18 -25 40 -46 22 -22 40 -45 40 -52 0 -7 23 -32 50 -55 28 -23 50
-47 50 -53 0 -6 45 -54 100 -107 55 -54 100 -102 100 -107 0 -6 18 -26 41 -44
22 -18 78 -70 123 -115 46 -46 89 -83 94 -83 6 0 25 -17 42 -39 34 -42 113
-86 173 -97 20 -3 37 -10 37 -15 0 -5 45 -9 100 -9 60 0 100 4 100 10 0 6 8
10 18 10 32 0 145 62 183 99 42 42 134 122 175 154 34 26 77 65 138 125 24 23
47 42 51 42 7 0 42 29 131 108 22 21 69 62 104 92 35 30 86 76 114 102 28 26
56 48 62 48 6 0 25 18 43 40 17 22 38 40 46 40 7 0 25 14 40 32 14 17 43 43
63 58 20 15 53 43 73 61 20 19 62 57 94 84 32 28 77 66 99 87 86 77 124 108
130 108 6 0 42 33 140 128 21 20 45 53 55 72 9 19 21 38 26 42 15 11 13 170
-2 176 -7 2 -13 10 -13 17 0 26 -72 166 -91 178 -10 6 -19 16 -19 20 0 5 -13
26 -30 47 -16 21 -30 42 -30 46 0 5 -18 27 -40 48 -22 22 -40 45 -40 51 0 7
-15 27 -32 46 -18 19 -50 60 -71 91 -21 31 -45 59 -53 62 -8 3 -14 10 -14 15
0 10 -62 108 -84 131 -7 8 -31 53 -52 100 -21 47 -41 87 -45 90 -6 5 -12 21
-66 175 -13 38 -28 72 -32 75 -12 7 -66 226 -82 328 -7 45 -16 82 -20 82 -4 0
-10 24 -14 53 -4 28 -10 1112 -14 2407 -6 1673 -11 2406 -20 2530 -13 188 -36
361 -50 370 -5 3 -30 102 -57 220 -26 118 -51 217 -54 220 -4 3 -12 28 -19 55
-18 75 -74 249 -81 255 -4 3 -26 41 -50 85 -23 44 -45 82 -49 85 -4 3 -25 34
-46 70 -22 36 -48 73 -58 84 -10 10 -32 40 -49 67 -16 27 -35 52 -42 56 -7 5
-26 28 -43 53 -17 25 -39 54 -50 65 -10 11 -38 43 -62 70 -60 69 -152 165
-159 165 -5 0 -67 52 -118 99 -18 16 -49 40 -70 54 -22 13 -54 38 -73 56 -18
17 -38 31 -45 31 -6 0 -26 13 -43 29 -18 16 -45 36 -60 44 -82 43 -126 69
-139 82 -8 7 -54 33 -102 56 -48 23 -89 45 -92 49 -5 8 -45 25 -164 71 -27 10
-52 23 -55 27 -3 5 -64 29 -136 53 -71 24 -132 47 -135 51 -7 8 -125 41 -250
69 -52 12 -97 25 -100 29 -10 14 -444 90 -517 90 -17 0 -33 4 -35 9 -8 23
-376 43 -843 46 -258 1 -488 1 -510 -1z m1605 -6433 c0 -516 -11 -849 -29
-861 -5 -3 -11 -32 -15 -65 -12 -96 -76 -409 -86 -415 -5 -3 -13 -26 -19 -51
-15 -67 -81 -263 -91 -269 -4 -3 -25 -47 -45 -98 -21 -51 -44 -100 -53 -108
-8 -8 -32 -51 -54 -95 -21 -44 -48 -89 -58 -99 -11 -11 -20 -25 -20 -31 0 -6
-13 -30 -30 -54 -16 -24 -30 -48 -30 -53 0 -6 -6 -12 -13 -15 -7 -3 -26 -24
-42 -48 -64 -94 -220 -249 -317 -315 -24 -16 -51 -36 -61 -46 -11 -9 -47 -31
-80 -49 -34 -18 -64 -35 -67 -39 -7 -10 -159 -77 -192 -85 -16 -4 -28 -11 -28
-15 0 -11 -112 -38 -229 -55 -119 -17 -303 -19 -406 -5 -85 12 -228 48 -235
59 -3 5 -43 26 -90 47 -47 20 -89 43 -95 49 -5 6 -32 26 -60 45 -81 56 -227
212 -268 288 -12 23 -29 50 -38 60 -18 21 -99 206 -99 226 0 8 -4 16 -10 18
-12 4 -43 127 -67 263 -22 127 -25 590 -5 730 16 113 62 318 72 325 4 3 11 16
15 30 16 55 78 205 85 210 5 3 26 40 48 82 21 42 47 84 56 94 10 9 29 36 43
58 28 45 36 55 150 171 43 44 95 91 115 105 21 14 38 28 38 32 0 4 26 24 58
44 31 20 62 41 67 47 11 12 45 32 130 75 28 14 52 28 55 32 7 10 128 65 162
73 15 4 33 14 41 21 16 16 252 92 318 102 21 4 39 10 39 14 0 17 296 63 525
82 82 6 152 15 155 20 7 9 121 13 473 16 l287 2 0 -549z"/>
</g>
</svg>
