<?xml version="1.0" standalone="no"?>
<!DOCTYPE svg PUBLIC "-//W3C//DTD SVG 20010904//EN"
 "http://www.w3.org/TR/2001/REC-SVG-20010904/DTD/svg10.dtd">
<svg version="1.0" xmlns="http://www.w3.org/2000/svg"
 width="1200.000000pt" height="1200.000000pt" viewBox="0 0 1200.000000 1200.000000"
 preserveAspectRatio="xMidYMid meet">

<g transform="translate(0.000000,1200.000000) scale(0.100000,-0.100000)"
fill="#000000" stroke="none">
<path d="M5615 11933 c-2431 -156 -4528 -1785 -5279 -4100 -188 -582 -273
-1098 -283 -1727 -10 -614 45 -1085 193 -1646 538 -2038 2153 -3657 4199
-4209 562 -151 1036 -208 1659 -198 521 8 904 59 1383 182 2304 596 4041 2524
4392 4875 48 326 56 445 56 885 0 440 -8 559 -56 885 -248 1659 -1198 3149
-2599 4075 -782 517 -1678 845 -2591 949 -246 28 -412 36 -719 34 -168 -1
-327 -3 -355 -5z m935 -108 c979 -99 1869 -413 2665 -940 1366 -905 2288
-2318 2555 -3918 62 -377 85 -705 77 -1097 -9 -363 -36 -633 -97 -958 -343
-1825 -1538 -3383 -3215 -4192 -650 -314 -1315 -495 -2065 -562 -212 -19 -781
-16 -995 5 -1233 120 -2307 568 -3250 1353 -157 132 -469 435 -612 598 -830
939 -1327 2086 -1448 3341 -9 88 -18 273 -22 410 -39 1662 624 3246 1842 4395
889 838 2027 1380 3235 1539 134 18 245 28 465 45 120 9 719 -4 865 -19z"/>
<path d="M6096 11501 l-49 -6 -99 -155 c-54 -85 -103 -156 -107 -158 -5 -2
-62 65 -127 148 l-118 151 -116 -7 c-63 -4 -117 -8 -118 -10 -2 -1 82 -105
186 -230 l190 -227 7 -143 7 -144 32 0 c17 0 61 3 98 6 l67 7 -6 146 -5 146
166 238 c91 132 166 241 166 243 0 5 -114 2 -174 -5z"/>
<path d="M4855 11382 c-214 -41 -391 -75 -392 -76 -2 -1 2 -30 8 -64 8 -46 15
-62 28 -62 9 0 74 11 145 25 71 14 131 23 134 20 3 -3 31 -141 63 -306 32
-166 60 -303 62 -305 4 -4 186 31 191 37 2 2 -23 141 -55 308 -32 168 -57 306
-55 308 2 3 68 16 146 31 l142 26 -6 54 c-4 30 -10 60 -14 66 -5 9 -112 -8
-397 -62z"/>
<path d="M6976 11399 c-66 -16 -155 -70 -201 -121 -60 -66 -88 -142 -88 -240
-1 -69 3 -84 36 -151 48 -97 128 -172 240 -226 302 -145 609 -84 713 142 26
55 29 73 29 157 0 85 -3 101 -30 154 -58 115 -183 211 -340 263 -64 21 -104
26 -200 29 -66 2 -137 -1 -159 -7z m325 -178 c147 -56 219 -166 189 -291 -18
-73 -61 -127 -127 -157 -49 -22 -65 -25 -141 -21 -141 7 -251 70 -298 173 -28
59 -30 93 -9 162 19 65 80 128 144 148 61 20 169 13 242 -14z"/>
<path d="M4105 11161 c-53 -19 -80 -33 -79 -43 2 -22 225 -692 234 -701 9 -10
181 43 186 58 7 19 -233 710 -247 712 -8 1 -50 -11 -94 -26z"/>
<path d="M7976 10759 c-98 -187 -177 -341 -175 -343 6 -6 168 -86 173 -86 2 0
32 53 66 118 34 64 64 119 65 120 4 4 271 -133 331 -169 l31 -19 32 59 31 59
-52 30 c-29 16 -110 59 -180 96 l-128 67 39 77 c67 132 38 131 271 8 111 -59
203 -106 205 -104 16 18 55 112 48 118 -4 4 -134 74 -288 155 -154 81 -282
149 -285 150 -3 2 -86 -150 -184 -336z"/>
<path d="M3456 10884 c-161 -39 -315 -154 -351 -263 -23 -70 -16 -131 21 -184
48 -67 75 -81 163 -85 68 -4 89 0 183 33 123 42 178 48 207 21 91 -83 -115
-236 -317 -236 l-65 0 7 -52 c3 -29 6 -65 6 -80 0 -27 2 -28 48 -28 63 0 176
32 266 76 230 112 319 280 226 427 -64 101 -175 117 -360 53 -157 -55 -220
-49 -220 20 0 62 143 150 263 161 l67 6 0 73 0 74 -42 -1 c-24 0 -70 -7 -102
-15z"/>
<path d="M5729 10369 c-800 -46 -1605 -328 -2257 -792 -766 -544 -1327 -1294
-1625 -2173 -310 -911 -310 -1906 -2 -2814 247 -727 676 -1371 1252 -1880 654
-577 1472 -949 2333 -1059 668 -86 1326 -21 1965 193 395 133 773 324 1110
560 392 274 784 662 1059 1050 452 635 723 1369 797 2161 16 168 16 593 0 760
-90 952 -458 1811 -1076 2515 -115 130 -348 359 -475 464 -653 546 -1438 886
-2285 991 -132 17 -513 40 -521 32 -4 -4 288 -600 300 -614 1 -2 151 -24 334
-51 182 -27 334 -51 337 -53 4 -5 -293 -304 -437 -440 l-46 -44 59 -339 c32
-187 58 -341 56 -342 -1 -1 -137 70 -302 157 -165 87 -304 158 -310 158 -5 0
-145 -71 -310 -159 -165 -87 -301 -157 -302 -156 -1 1 24 155 56 342 l59 339
-244 239 c-135 131 -242 241 -240 244 3 3 155 27 337 53 183 27 334 50 336 52
5 5 303 608 303 613 0 5 -91 3 -261 -7z m-734 -979 c27 -27 47 -51 44 -53 -5
-4 -903 -58 -961 -57 -37 0 -38 1 -38 35 0 21 5 35 13 36 11 0 857 85 882 88
6 0 33 -21 60 -49z m2495 5 c506 -47 460 -39 460 -81 0 -32 -2 -34 -32 -34
-54 -1 -963 53 -967 57 -3 2 17 26 44 53 44 45 52 49 84 45 20 -3 205 -21 411
-40z m-2233 -252 c15 -21 18 -37 13 -66 -4 -20 -9 -39 -11 -41 -5 -5 -2515
-776 -2526 -776 -6 0 -15 16 -21 36 -10 34 -10 37 16 46 102 38 2480 826 2494
827 9 1 25 -11 35 -26z m2764 -387 c687 -228 1253 -417 1258 -420 12 -8 -9
-76 -23 -76 -6 0 -578 175 -1271 388 l-1260 388 -6 40 c-5 30 -2 45 13 67 11
15 24 27 30 27 5 0 572 -186 1259 -414z m-2811 -47 c-18 -103 -23 -116 -49
-137 -17 -13 -101 -80 -187 -148 l-157 -124 119 0 c170 0 441 -17 564 -36 190
-28 319 -72 383 -133 61 -56 57 124 57 -2338 l0 -2258 25 -60 c13 -33 25 -71
25 -85 1 -17 10 -2 28 45 l26 70 6 2281 5 2281 28 36 c92 121 348 178 880 195
l207 7 -166 130 c-91 72 -174 137 -185 145 -14 12 -24 44 -39 130 -11 62 -19
115 -17 116 1 1 152 -119 335 -267 l334 -269 81 0 c81 0 444 -13 730 -26 l147
-6 0 -73 0 -72 113 -6 c61 -4 145 -7 185 -7 l72 0 0 -64 0 -63 46 -7 c26 -3
91 -6 144 -6 53 0 118 -3 144 -6 l46 -7 0 -526 0 -526 232 -195 c128 -107 360
-302 515 -433 l283 -238 -26 -39 -27 -40 -41 33 c-22 18 -237 192 -476 387
-239 194 -441 357 -447 363 -10 7 -13 -143 -13 -748 0 -717 1 -757 18 -749 9
4 49 9 88 12 130 8 204 -47 204 -153 0 -143 -136 -206 -517 -239 l-63 -6 0
1470 0 1470 -55 0 -55 0 0 -1471 0 -1472 -124 5 c-68 3 -129 9 -135 12 -8 5
-11 453 -11 1542 l0 1534 -50 0 -50 0 0 -1529 0 -1528 -60 14 c-108 24 -282
80 -516 165 l-229 83 188 3 187 2 0 45 0 45 -245 0 -245 0 0 -25 c0 -14 -4
-25 -9 -25 -5 0 -51 11 -102 25 -211 56 -419 56 -612 0 -48 -14 -89 -25 -92
-25 -3 0 -5 13 -5 29 l0 30 -72 -20 c-40 -11 -107 -37 -148 -57 -67 -33 -75
-40 -78 -69 l-3 -31 78 24 c43 13 80 24 81 24 2 0 -23 -20 -56 -45 -33 -25
-84 -71 -113 -103 -50 -54 -132 -172 -125 -180 2 -2 45 -12 95 -22 112 -23
241 -60 241 -70 0 -4 -27 -38 -61 -76 -85 -96 -150 -198 -224 -349 -52 -105
-135 -298 -135 -312 0 -2 32 24 71 56 141 119 296 178 494 188 183 10 283 -15
667 -166 383 -149 597 -215 832 -256 49 -8 92 -17 94 -20 3 -3 -334 -5 -749
-5 -876 0 -919 -4 -1088 -86 -81 -40 -170 -122 -209 -194 -26 -45 -22 -45 47
8 90 68 225 122 370 147 69 12 234 15 957 15 l874 0 0 50 0 50 135 0 135 0 0
-145 0 -144 -1117 -4 c-1209 -3 -1165 -1 -1276 -57 -105 -53 -168 -50 1217
-50 l1286 0 0 203 0 203 108 12 c59 7 119 15 135 19 l27 5 -2 -333 -3 -334
-477 0 -478 0 -79 -105 c-94 -125 -288 -317 -426 -420 -529 -397 -1174 -552
-1770 -426 -434 92 -864 336 -1225 696 -184 183 -272 296 -542 697 -259 386
-318 465 -431 575 -205 202 -446 300 -771 315 -203 9 -324 -15 -434 -87 l-60
-38 50 191 c122 472 154 559 247 660 103 111 240 154 461 144 160 -7 276 -28
422 -77 361 -120 708 -374 1014 -740 39 -47 187 -242 330 -435 142 -192 290
-390 330 -440 92 -115 248 -269 350 -346 97 -74 272 -161 379 -190 158 -43
561 -34 679 15 27 11 11 13 -144 19 -96 3 -216 13 -265 21 -280 47 -497 156
-705 352 -40 38 -67 70 -62 72 15 5 98 -39 176 -92 36 -25 66 -43 66 -40 0 18
-88 130 -137 174 -55 49 -185 121 -247 136 -22 5 -59 48 -173 203 -80 108
-158 212 -173 231 l-27 35 109 -3 108 -3 0 45 0 46 -138 0 -139 0 -74 102
c-41 56 -75 105 -77 110 -2 4 26 8 62 8 l66 0 0 45 0 45 -105 0 -106 0 -31 38
c-125 146 -324 330 -472 436 l-79 56 252 0 251 0 0 45 0 45 -300 0 c-253 0
-300 -2 -300 -14 0 -10 -36 4 -116 44 -64 32 -161 73 -215 91 l-99 34 0 1273
0 1273 -52 -3 -53 -3 -3 -1259 -2 -1258 -23 6 c-12 3 -70 11 -129 18 l-108 12
0 1168 0 1168 -55 0 -55 0 0 -1169 0 -1170 -47 -6 c-65 -8 -184 -32 -205 -40
-17 -7 -18 31 -20 668 l-3 675 -435 -354 c-239 -195 -460 -374 -491 -399 l-57
-44 -26 39 -26 39 128 108 c70 59 304 256 520 437 l392 329 0 522 0 522 46 7
c26 3 91 6 144 6 53 0 118 3 144 6 l46 7 0 63 0 64 63 0 c35 0 119 3 185 7
l122 6 0 72 0 72 138 7 c182 9 671 26 749 26 l61 0 334 269 c183 148 334 267
336 266 1 -1 -6 -54 -18 -116z m2130 -3602 c69 -19 215 -70 325 -112 574 -220
730 -259 1050 -258 311 1 532 35 672 103 80 40 145 111 164 180 l15 52 52
-184 c67 -235 82 -311 82 -408 0 -319 -190 -496 -615 -573 -106 -19 -155 -22
-415 -22 -260 0 -310 3 -424 23 -256 45 -452 105 -898 275 -305 116 -466 157
-625 157 -85 0 -208 -23 -270 -50 -25 -11 -43 -14 -43 -8 0 5 19 46 42 91 51
97 134 211 211 291 32 32 57 59 57 60 0 9 -190 89 -255 108 -44 12 -82 24 -84
25 -10 8 109 119 169 158 154 101 294 137 515 131 135 -3 162 -7 275 -39z
m-4237 -783 l27 -6 0 -484 0 -484 494 0 494 0 81 -112 81 -113 -698 -3 c-383
-1 -703 0 -709 3 -10 3 -13 92 -13 398 l0 394 -90 12 c-175 22 -277 86 -298
186 -17 78 7 119 93 163 97 50 173 62 350 57 88 -2 172 -7 188 -11z m299 -107
c116 -65 108 -41 108 -322 l0 -245 205 0 204 0 39 -57 c21 -32 48 -75 61 -95
l23 -38 -401 0 -401 0 0 415 0 415 49 -19 c28 -10 78 -35 113 -54z m364 -340
c41 -54 74 -103 74 -108 0 -6 -45 -9 -112 -7 l-113 3 -3 145 -3 145 42 -40
c23 -22 75 -84 115 -138z"/>
<path d="M4147 7758 c-20 -79 -55 -210 -76 -291 l-40 -148 62 3 61 3 16 65 15
65 74 0 75 0 16 -65 16 -65 68 -3 c61 -3 67 -1 62 15 -2 10 -39 141 -82 291
l-77 272 -76 0 -77 0 -37 -142z m173 -215 c0 -2 -27 -3 -61 -3 -53 0 -60 2
-55 18 3 9 14 55 26 102 11 47 23 92 26 100 4 11 55 -164 64 -217z"/>
<path d="M4620 7685 l0 -45 85 0 85 0 0 45 0 45 -85 0 -85 0 0 -45z"/>
<path d="M4890 7685 l0 -45 135 0 135 0 0 45 0 45 -135 0 -135 0 0 -45z"/>
<path d="M5262 7683 l3 -47 80 -12 c96 -13 191 -39 263 -70 l52 -23 0 29 c0
70 -214 170 -365 170 l-36 0 3 -47z"/>
<path d="M6625 7715 c-83 -15 -146 -41 -221 -91 -44 -29 -54 -41 -54 -64 l0
-29 55 24 c70 31 199 64 281 72 l64 6 0 48 c0 47 -1 49 -27 48 -16 0 -59 -7
-98 -14z"/>
<path d="M6850 7685 l0 -45 135 0 135 0 0 45 0 45 -135 0 -135 0 0 -45z"/>
<path d="M7200 7685 l0 -45 85 0 85 0 0 45 0 45 -85 0 -85 0 0 -45z"/>
<path d="M7450 7685 l0 -45 85 0 85 0 0 45 0 45 -85 0 -85 0 0 -45z"/>
<path d="M7710 7685 l0 -45 125 0 125 0 0 45 0 45 -125 0 -125 0 0 -45z"/>
<path d="M4630 7365 l0 -45 125 0 125 0 0 45 0 45 -125 0 -125 0 0 -45z"/>
<path d="M4980 7366 l0 -46 148 0 c200 0 363 -30 515 -95 14 -6 17 -2 17 22 0
23 -9 34 -52 63 -29 19 -91 48 -138 64 -82 29 -93 30 -287 34 l-203 4 0 -46z"/>
<path d="M6630 7395 c-82 -18 -160 -49 -227 -92 -41 -25 -53 -38 -53 -58 0
-14 1 -25 3 -25 1 0 45 15 97 34 133 47 255 66 432 66 l148 0 0 45 0 45 -167
-1 c-101 0 -194 -6 -233 -14z"/>
<path d="M7130 7365 l0 -45 230 0 230 0 0 45 0 45 -230 0 -230 0 0 -45z"/>
<path d="M7710 7365 l0 -45 125 0 125 0 0 45 0 45 -125 0 -125 0 0 -45z"/>
<path d="M4040 7055 l0 -45 305 0 305 0 0 45 0 45 -305 0 -305 0 0 -45z"/>
<path d="M4760 7055 l0 -45 200 0 200 0 0 45 0 45 -200 0 -200 0 0 -45z"/>
<path d="M5260 7056 l0 -44 63 -7 c85 -10 236 -49 285 -74 52 -27 52 -27 52 9
0 27 -7 33 -92 74 -86 42 -232 86 -285 86 -20 0 -23 -5 -23 -44z"/>
<path d="M6625 7081 c-88 -24 -178 -60 -232 -94 -33 -21 -43 -34 -43 -53 0
-21 3 -25 18 -18 65 29 196 67 281 81 l101 18 0 42 c0 40 -2 43 -27 42 -16 0
-60 -8 -98 -18z"/>
<path d="M6850 7055 l0 -45 200 0 200 0 0 45 0 45 -200 0 -200 0 0 -45z"/>
<path d="M7360 7055 l0 -45 300 0 300 0 0 45 0 45 -300 0 -300 0 0 -45z"/>
<path d="M4040 6755 l0 -45 235 0 235 0 0 45 0 45 -235 0 -235 0 0 -45z"/>
<path d="M4620 6755 l0 -45 85 0 85 0 0 45 0 45 -85 0 -85 0 0 -45z"/>
<path d="M4890 6755 l0 -45 135 0 135 0 0 45 0 45 -135 0 -135 0 0 -45z"/>
<path d="M5260 6756 l0 -44 58 -7 c104 -13 217 -44 325 -90 14 -6 17 -2 17 24
0 29 -6 33 -92 75 -86 42 -232 86 -285 86 -20 0 -23 -5 -23 -44z"/>
<path d="M6641 6785 c-84 -19 -187 -58 -245 -95 -36 -23 -46 -35 -46 -56 0
-21 3 -25 18 -18 65 29 196 67 281 81 l101 18 0 42 c0 50 -3 51 -109 28z"/>
<path d="M6850 6755 l0 -45 135 0 135 0 0 45 0 45 -135 0 -135 0 0 -45z"/>
<path d="M7220 6755 l0 -45 85 0 85 0 0 45 0 45 -85 0 -85 0 0 -45z"/>
<path d="M7500 6755 l0 -45 230 0 230 0 0 45 0 45 -230 0 -230 0 0 -45z"/>
<path d="M4040 6445 l0 -45 160 0 160 0 0 45 0 45 -160 0 -160 0 0 -45z"/>
<path d="M4470 6445 l0 -45 205 0 205 0 0 45 0 45 -205 0 -205 0 0 -45z"/>
<path d="M4980 6445 l0 -45 113 0 c196 0 400 -35 523 -90 l44 -19 0 29 c0 23
-9 34 -49 59 -122 79 -264 111 -487 111 l-144 0 0 -45z"/>
<path d="M6685 6479 c-112 -17 -194 -47 -292 -108 -33 -20 -43 -32 -43 -52 l0
-27 78 30 c122 48 237 68 430 75 l172 6 0 44 0 43 -142 -1 c-79 -1 -170 -5
-203 -10z"/>
<path d="M7130 6445 l0 -45 210 0 210 0 0 45 0 45 -210 0 -210 0 0 -45z"/>
<path d="M7650 6445 l0 -45 155 0 155 0 0 45 0 45 -155 0 -155 0 0 -45z"/>
<path d="M4040 6135 l0 -45 305 0 305 0 0 45 0 45 -305 0 -305 0 0 -45z"/>
<path d="M4760 6135 l0 -45 200 0 200 0 0 45 0 45 -200 0 -200 0 0 -45z"/>
<path d="M5260 6135 c0 -50 -10 -45 120 -65 88 -15 189 -44 243 -72 l38 -19
-3 32 c-3 29 -11 37 -73 70 -69 37 -200 80 -282 93 l-43 6 0 -45z"/>
<path d="M6650 6161 c-92 -20 -187 -56 -256 -96 -36 -21 -44 -31 -44 -56 l0
-29 38 19 c53 27 155 57 242 71 130 20 120 15 120 65 0 25 -3 45 -7 44 -5 0
-46 -9 -93 -18z"/>
<path d="M6850 6135 l0 -45 200 0 200 0 0 45 0 45 -200 0 -200 0 0 -45z"/>
<path d="M7360 6135 l0 -45 300 0 300 0 0 45 0 45 -300 0 -300 0 0 -45z"/>
<path d="M4040 5820 l0 -50 235 0 235 0 0 50 0 50 -235 0 -235 0 0 -50z"/>
<path d="M4624 5856 c-3 -8 -4 -29 -2 -48 l3 -33 83 -3 82 -3 0 51 0 50 -80 0
c-60 0 -82 -4 -86 -14z"/>
<path d="M4897 5863 c-4 -3 -7 -26 -7 -50 l0 -43 218 0 c243 0 335 -13 475
-68 l77 -30 0 28 c0 23 -10 35 -60 69 -97 64 -157 82 -310 92 -165 10 -384 11
-393 2z"/>
<path d="M6730 5860 c-136 -8 -208 -26 -285 -71 -73 -42 -95 -64 -95 -93 0
-14 2 -26 4 -26 2 0 32 13 68 29 125 57 173 65 433 71 l240 5 0 45 0 45 -120
1 c-66 1 -176 -2 -245 -6z"/>
<path d="M7200 5820 l0 -51 83 3 82 3 0 45 0 45 -82 3 -83 3 0 -51z"/>
<path d="M7474 5856 c-3 -8 -4 -29 -2 -48 l3 -33 160 0 160 0 0 45 0 45 -158
3 c-129 2 -158 0 -163 -12z"/>
<path d="M7890 5820 l0 -50 35 0 35 0 0 50 0 50 -35 0 -35 0 0 -50z"/>
<path d="M4040 5505 l0 -45 160 0 160 0 0 45 0 45 -160 0 -160 0 0 -45z"/>
<path d="M4470 5505 l0 -45 205 0 205 0 0 45 0 45 -205 0 -205 0 0 -45z"/>
<path d="M4980 5505 l0 -45 90 0 90 0 0 45 0 45 -90 0 -90 0 0 -45z"/>
<path d="M5260 5507 c0 -46 0 -46 38 -52 80 -12 240 -53 300 -77 l62 -26 0 29
c0 20 -9 35 -32 52 -78 58 -199 104 -300 114 l-68 6 0 -46z"/>
<path d="M6650 5543 c-89 -13 -201 -60 -267 -111 -24 -17 -33 -32 -33 -53 l0
-29 38 16 c68 30 179 63 248 74 122 20 114 15 114 65 l0 45 -37 -1 c-21 -1
-49 -3 -63 -6z"/>
<path d="M6850 5505 l0 -45 90 0 90 0 0 45 0 45 -90 0 -90 0 0 -45z"/>
<path d="M7130 5505 l0 -45 210 0 210 0 0 45 0 45 -210 0 -210 0 0 -45z"/>
<path d="M7640 5505 l0 -45 160 0 160 0 0 45 0 45 -160 0 -160 0 0 -45z"/>
<path d="M4760 5195 l0 -45 250 0 250 0 0 45 0 45 -250 0 -250 0 0 -45z"/>
<path d="M5362 5184 l3 -46 90 -23 c50 -13 114 -32 143 -44 65 -26 62 -26 62
3 0 40 -103 105 -219 140 -81 24 -83 23 -79 -30z"/>
<path d="M2935 5138 c-2 -7 -22 -116 -45 -243 -23 -126 -44 -237 -46 -246 -4
-14 18 -17 178 -23 100 -3 185 -3 188 1 4 5 10 22 13 39 l6 31 -136 6 c-74 3
-138 8 -140 11 -5 4 61 388 72 424 3 8 -9 12 -41 12 -27 0 -46 -5 -49 -12z"/>
<path d="M3401 4860 c-57 -133 -101 -242 -99 -244 27 -18 350 -146 357 -142 5
3 14 19 19 35 l10 29 -136 57 c-76 32 -138 59 -140 60 -1 1 11 32 27 68 28 62
32 66 53 58 13 -5 60 -25 105 -44 l81 -34 15 37 14 38 -103 42 c-57 23 -104
44 -104 46 0 11 54 124 59 124 4 0 65 -25 135 -55 70 -30 129 -55 131 -55 11
0 36 63 28 70 -6 6 -268 119 -339 147 -6 2 -55 -101 -113 -237z"/>
<path d="M4530 4895 l0 -45 120 0 120 0 0 45 0 45 -120 0 -120 0 0 -45z"/>
<path d="M4890 4896 l0 -43 228 -6 c266 -6 388 -28 510 -91 l32 -17 0 31 c0
26 -8 36 -61 70 -121 78 -231 100 -516 100 l-193 0 0 -44z"/>
<path d="M3982 4821 l-22 -30 62 -55 62 -55 -20 -23 c-11 -13 -67 -77 -124
-143 -57 -66 -112 -130 -124 -143 l-20 -22 29 -30 c16 -17 31 -30 35 -30 3 0
63 67 133 149 176 205 153 191 221 131 31 -27 61 -50 66 -50 5 0 18 12 30 27
l21 27 -23 22 c-41 40 -293 254 -298 254 -4 0 -16 -13 -28 -29z"/>
<path d="M4980 4575 l0 -45 90 0 90 0 0 45 0 45 -90 0 -90 0 0 -45z"/>
<path d="M5260 4577 l0 -44 106 -17 c89 -15 195 -45 277 -81 14 -6 17 -2 17
22 0 23 -9 34 -51 62 -95 62 -211 101 -301 101 l-48 0 0 -43z"/>
<path d="M4437 4337 l-28 -22 48 -68 c29 -42 43 -71 37 -75 -6 -4 -88 -60
-182 -126 l-172 -118 18 -30 c9 -17 22 -32 29 -35 6 -2 90 50 186 116 97 67
178 121 181 121 3 0 24 -28 47 -62 23 -35 43 -65 45 -67 2 -2 19 7 39 19 l35
22 -43 61 c-24 34 -79 113 -121 175 -43 61 -81 112 -84 112 -4 0 -20 -10 -35
-23z"/>
<path d="M5330 4262 l0 -49 69 -12 c57 -10 176 -47 244 -76 14 -6 17 -2 17 22
0 23 -9 34 -50 61 -64 42 -129 70 -205 88 -33 7 -63 14 -67 14 -5 0 -8 -22 -8
-48z"/>
<path d="M4573 3775 l-212 -152 25 -37 25 -37 47 34 c26 19 67 48 91 66 l44
31 41 -58 c91 -126 109 -152 105 -155 -2 -2 -41 -29 -86 -61 -45 -31 -84 -60
-87 -64 -2 -4 8 -22 22 -40 l27 -32 205 146 c113 80 208 149 212 152 8 8 -32
72 -44 72 -4 0 -46 -28 -93 -61 -47 -34 -87 -60 -89 -58 -1 2 -24 36 -51 74
-27 39 -59 84 -72 101 l-23 31 90 63 89 63 -17 29 c-9 16 -21 33 -27 37 -6 5
-103 -59 -222 -144z"/>
<path d="M4936 3265 c-92 -106 -168 -196 -168 -200 1 -5 204 -186 273 -242 13
-10 20 -8 43 16 l27 28 -115 99 -114 98 28 36 c15 19 37 43 49 54 20 19 21 18
77 -30 31 -27 70 -60 86 -73 l30 -24 26 27 27 27 -30 27 c-17 15 -57 50 -89
78 l-58 51 43 51 c24 28 46 51 49 51 3 1 55 -42 115 -94 61 -52 112 -95 115
-94 3 0 15 13 27 28 l22 28 -137 120 c-75 65 -142 122 -148 126 -6 3 -82 -77
-178 -188z"/>
<path d="M5365 2890 c-63 -126 -115 -234 -115 -238 0 -7 62 -42 73 -42 2 0 21
36 42 80 21 44 44 80 50 80 5 0 31 -13 56 -29 l45 -29 13 -99 c7 -55 16 -104
19 -110 4 -6 27 -20 51 -33 l44 -22 -6 24 c-3 12 -11 59 -17 103 -6 44 -13 88
-16 98 -5 14 1 17 36 17 59 0 105 23 134 67 36 56 42 102 18 156 -24 55 -57
80 -199 151 l-113 56 -115 -230z m247 73 c106 -55 131 -112 76 -170 -32 -34
-84 -30 -172 14 l-74 37 39 78 c22 43 44 78 50 78 6 0 43 -17 81 -37z"/>
<path d="M7082 3069 c-40 -28 -72 -54 -72 -57 0 -18 293 -417 305 -416 7 1 80
50 163 109 l151 108 -20 28 c-11 16 -24 29 -28 29 -4 0 -61 -38 -126 -85 -66
-46 -120 -83 -120 -82 -1 1 -21 28 -43 59 l-42 57 100 71 99 72 -21 29 c-12
16 -24 29 -26 29 -2 0 -46 -29 -97 -65 -52 -36 -96 -65 -98 -65 -8 0 -77 96
-77 107 0 5 34 33 75 62 41 28 75 54 75 57 0 2 -28 4 -63 4 -60 0 -67 -3 -135
-51z"/>
<path d="M6655 2898 c-66 -22 -121 -42 -122 -43 -3 -1 158 -488 163 -494 1 -1
67 18 144 44 123 41 148 53 186 89 39 38 44 47 44 88 0 63 -32 109 -90 128
-25 8 -47 15 -49 17 -1 1 4 12 13 25 20 28 21 90 1 128 -37 71 -117 76 -290
18z m205 -58 c27 -27 26 -71 -2 -97 -18 -16 -153 -73 -173 -73 -6 0 -47 131
-43 136 11 10 145 53 171 53 15 1 36 -8 47 -19z m97 -202 c33 -30 30 -70 -7
-101 -24 -20 -165 -77 -192 -77 -11 0 -51 131 -42 140 13 12 165 59 193 60 14
0 35 -10 48 -22z"/>
<path d="M5930 2908 c0 -2 -13 -118 -29 -258 -16 -140 -28 -256 -27 -257 5 -6
378 -45 382 -40 3 2 7 20 10 39 l6 34 -146 15 c-80 9 -149 18 -152 21 -2 3 -2
36 2 73 l7 67 81 -8 c150 -14 151 -14 154 27 l3 36 -108 12 c-59 7 -110 14
-113 16 -8 5 5 124 14 132 6 6 211 -12 267 -23 25 -5 27 -2 31 35 2 23 1 41
-2 41 -3 0 -81 9 -175 20 -166 19 -205 23 -205 18z"/>
<path d="M6982 4760 c-35 -132 -65 -246 -68 -254 -4 -9 41 -22 169 -49 95 -20
176 -37 180 -37 6 0 29 72 24 75 -1 1 -60 14 -131 29 -72 15 -131 28 -133 30
-2 2 22 99 52 216 31 116 55 213 53 215 -2 1 -21 6 -43 9 l-41 7 -62 -241z"/>
<path d="M7550 4856 c0 -1 -40 -113 -90 -247 -49 -133 -90 -244 -90 -244 0 -4
82 -26 85 -23 5 6 175 473 175 480 0 4 -16 15 -36 23 -38 16 -44 17 -44 11z"/>
<path d="M7867 4675 c-62 -24 -114 -71 -144 -133 -37 -75 -39 -184 -6 -248 49
-92 153 -148 274 -147 104 0 117 11 156 127 18 55 32 100 30 101 -1 1 -48 18
-104 38 l-101 36 -11 -31 c-16 -45 -16 -45 45 -65 31 -9 58 -22 60 -28 3 -6
-2 -28 -9 -50 -16 -47 -48 -58 -123 -44 -133 25 -191 163 -119 285 65 111 213
123 298 24 l32 -38 39 23 38 23 -38 42 c-55 61 -124 92 -209 96 -45 3 -84 -1
-108 -11z"/>
<path d="M9125 4606 l-190 -42 4 -40 c1 -21 4 -40 5 -41 0 -1 37 7 81 17 44
10 81 17 83 15 2 -1 17 -94 33 -206 17 -112 32 -209 34 -216 4 -11 69 -3 82
11 3 3 -9 99 -26 213 -17 114 -31 211 -31 215 0 3 36 14 80 24 71 15 80 19 80
40 0 35 -10 54 -29 53 -9 0 -101 -20 -206 -43z"/>
<path d="M8390 4563 c-1 -10 -9 -126 -19 -258 -11 -132 -18 -242 -16 -243 2
-2 21 -6 43 -9 l39 -5 6 53 c4 30 7 74 7 99 0 72 1 73 136 63 l119 -8 -3 -112
-3 -113 43 0 44 0 17 238 c23 313 26 284 -25 280 l-43 -3 -7 -99 c-4 -54 -9
-101 -12 -104 -3 -2 -61 -1 -128 4 l-123 9 4 75 c8 158 12 145 -36 148 -36 3
-43 0 -43 -15z"/>
<path d="M2615 10303 c-58 -23 -118 -68 -306 -228 l-167 -143 220 -258 c121
-143 233 -274 249 -293 l28 -34 73 64 c40 35 75 64 77 66 2 1 -30 41 -70 89
-124 144 -118 125 -55 179 l54 46 165 -47 165 -46 86 73 c47 40 83 76 79 80
-5 3 -69 21 -144 38 -75 18 -152 36 -172 42 l-35 9 25 46 c36 63 46 116 32
167 -34 132 -175 202 -304 150z m70 -165 c38 -17 69 -72 61 -109 -9 -46 -36
-79 -133 -160 l-87 -73 -53 60 c-30 32 -63 71 -74 86 l-19 27 85 73 c118 101
165 121 220 96z"/>
<path d="M9170 10278 c-77 -30 -169 -123 -198 -201 -73 -194 32 -443 251 -598
76 -53 203 -108 216 -93 5 5 20 41 34 81 l26 71 -40 7 c-68 12 -174 71 -223
126 -111 123 -125 258 -38 360 98 114 262 106 396 -21 48 -45 116 -156 116
-189 0 -6 6 -11 13 -11 12 0 137 47 145 55 1 1 -17 40 -40 86 -76 153 -245
293 -402 335 -77 21 -191 17 -256 -8z"/>
<path d="M5880 9884 c-58 -118 -106 -218 -108 -223 -1 -4 47 -76 108 -161
l110 -153 0 377 c0 207 -1 376 -2 375 -2 0 -50 -97 -108 -215z"/>
<path d="M6143 9537 c-45 -61 -96 -131 -113 -154 l-30 -41 132 42 c407 131
587 190 585 193 -3 2 -478 73 -488 73 -2 0 -41 -51 -86 -113z"/>
<path d="M1600 9314 c-119 -148 -209 -269 -203 -272 5 -4 138 -110 296 -236
157 -125 288 -229 291 -230 3 0 104 122 226 273 l220 273 -49 39 c-27 22 -52
39 -55 39 -3 0 -76 -88 -162 -195 l-156 -195 -74 61 -75 61 34 41 c116 144
227 285 227 289 0 12 -102 80 -109 72 -4 -5 -63 -78 -130 -161 -67 -84 -124
-153 -127 -153 -2 0 -34 23 -69 52 -41 32 -62 55 -56 62 4 6 71 90 149 188
l141 176 -42 34 c-23 19 -47 37 -53 41 -6 3 -104 -110 -224 -259z"/>
<path d="M5330 9505 c36 -36 117 -115 181 -175 l115 -109 180 58 179 58 -335
110 c-184 61 -346 114 -360 118 -19 5 -10 -8 40 -60z"/>
<path d="M9890 9318 c-228 -33 -417 -62 -419 -64 -1 -1 23 -39 55 -83 l57 -81
41 6 c23 4 61 10 84 14 l44 8 116 -157 c163 -219 153 -195 108 -275 -21 -37
-35 -74 -32 -81 6 -16 116 -165 122 -165 11 0 384 763 378 773 -24 42 -121
166 -129 166 -5 -1 -197 -28 -425 -61z m283 -265 c-42 -82 -79 -152 -83 -156
-4 -4 -49 49 -100 118 -51 69 -91 128 -89 129 6 5 290 54 321 55 l27 1 -76
-147z"/>
<path d="M6011 9322 c5 -12 433 -602 435 -599 1 1 -17 112 -40 246 l-42 244
-159 54 c-88 29 -168 56 -179 59 -10 3 -17 2 -15 -4z"/>
<path d="M5768 9023 c-119 -164 -215 -299 -213 -301 1 -2 100 48 219 110 l216
113 0 188 c0 103 -1 187 -3 187 -1 0 -100 -134 -219 -297z"/>
<path d="M1219 8738 l-46 -92 185 -250 c101 -138 179 -252 173 -254 -6 -2
-118 1 -249 7 -130 6 -266 11 -302 11 l-65 0 -52 -99 -52 -98 187 -7 c103 -3
295 -8 427 -12 l240 -6 52 99 52 98 -247 347 c-136 191 -249 347 -252 348 -3
0 -26 -41 -51 -92z"/>
<path d="M10795 8646 c-108 -50 -630 -298 -633 -301 -4 -4 267 -545 273 -545
12 0 115 50 115 56 0 3 -41 85 -91 181 -50 96 -89 176 -88 178 2 2 130 63 284
135 154 73 281 133 282 134 5 4 -81 186 -87 185 -3 0 -27 -11 -55 -23z"/>
<path d="M10835 7777 c-198 -61 -362 -112 -364 -114 -6 -4 50 -193 57 -193 5
0 726 221 728 224 1 0 -13 45 -30 98 l-31 96 -360 -111z"/>
<path d="M769 7723 c-6 -16 -21 -58 -34 -94 l-23 -66 352 -123 c193 -68 356
-125 362 -127 13 -5 78 178 67 188 -9 7 -693 249 -706 249 -4 0 -12 -12 -18
-27z"/>
<path d="M11011 7248 c-206 -32 -376 -60 -378 -62 -4 -3 24 -187 30 -192 1 -2
63 6 136 17 73 12 134 19 136 17 2 -2 18 -91 34 -197 17 -106 32 -195 35 -198
4 -5 116 14 123 21 2 2 -10 90 -26 197 -17 106 -28 196 -25 199 13 12 206 36
210 26 2 -6 17 -99 34 -206 42 -272 30 -243 98 -235 31 4 60 10 64 13 5 6 -85
629 -95 653 -1 3 -170 -21 -376 -53z"/>
<path d="M597 7091 c-3 -14 -9 -54 -12 -88 -9 -74 -41 -61 260 -103 277 -38
272 -37 254 -54 -8 -8 -142 -96 -299 -196 -157 -100 -287 -184 -289 -186 -6
-5 -41 -237 -37 -242 5 -5 749 -112 753 -108 6 5 26 166 22 170 -2 3 -123 21
-269 42 -146 20 -269 40 -273 44 -4 4 130 94 298 200 168 106 309 198 314 204
7 9 43 228 38 232 -1 1 -171 26 -379 56 l-376 55 -5 -26z"/>
<path d="M11033 6412 c-142 -51 -239 -178 -277 -365 -50 -242 23 -485 176
-591 78 -53 170 -73 261 -58 121 21 201 79 270 195 102 170 109 452 15 629
-40 75 -106 140 -175 174 -74 37 -193 44 -270 16z m218 -230 c66 -34 103 -85
125 -172 31 -122 1 -254 -75 -330 -54 -54 -116 -76 -186 -67 -136 19 -215 126
-215 292 0 94 23 165 74 222 76 87 178 107 277 55z"/>
<path d="M692 5793 l-202 -16 6 -96 c4 -53 8 -97 9 -99 2 -2 95 4 208 12 277
22 306 21 348 -7 75 -50 110 -153 91 -265 -13 -78 -46 -125 -104 -146 -36 -13
-382 -46 -481 -46 l-29 0 7 -97 c4 -54 8 -99 10 -101 6 -7 515 39 549 50 58
18 128 87 159 155 79 177 46 455 -69 582 -83 92 -145 101 -502 74z"/>
<path d="M10706 5154 c-15 -53 -25 -98 -24 -99 2 -1 61 -19 131 -38 71 -20
131 -38 134 -40 4 -4 -25 -125 -32 -135 -1 -1 -73 -27 -159 -56 -87 -30 -160
-56 -163 -59 -8 -9 -63 -210 -58 -215 2 -2 77 23 166 57 89 33 165 61 169 61
4 0 10 -26 14 -57 14 -119 88 -194 200 -201 102 -7 177 42 233 153 19 35 157
515 150 521 -1 1 -161 45 -354 98 -194 53 -359 99 -366 102 -10 4 -21 -21 -41
-92z m486 -240 c54 -15 98 -32 98 -38 0 -6 -12 -54 -26 -106 -45 -165 -79
-207 -155 -197 -50 7 -76 29 -90 77 -10 32 -7 55 20 158 17 67 31 124 31 127
0 9 22 5 122 -21z"/>
<path d="M1463 4502 c-23 -9 -44 -20 -48 -23 -3 -4 30 -109 74 -234 45 -125
81 -231 81 -235 0 -7 -170 -73 -176 -68 -1 2 -29 80 -62 173 -33 94 -65 182
-71 197 l-10 27 -61 -22 c-33 -12 -60 -25 -60 -28 0 -3 31 -92 69 -198 38
-105 65 -193 61 -196 -9 -6 -146 -55 -152 -55 -3 0 -40 100 -83 223 -43 122
-79 223 -80 224 -3 4 -125 -38 -125 -43 0 -23 226 -634 234 -634 14 0 699 241
707 249 11 11 -225 656 -241 658 -8 1 -34 -6 -57 -15z"/>
<path d="M10414 4247 c-20 -42 -33 -80 -31 -84 3 -5 116 -60 251 -123 135 -63
246 -117 246 -120 0 -4 -152 -48 -337 -99 -186 -52 -347 -97 -358 -101 -24 -9
-123 -207 -109 -219 7 -6 628 -301 672 -318 15 -6 87 146 75 158 -7 7 -373
182 -453 216 -25 11 -30 17 -20 22 8 5 167 50 352 101 l337 94 51 110 c28 60
47 112 43 116 -7 6 -634 303 -670 317 -8 3 -26 -23 -49 -70z"/>
<path d="M1594 3462 c-165 -103 -311 -194 -324 -203 l-24 -16 49 -79 c27 -43
50 -81 51 -83 3 -3 33 14 181 107 l82 51 120 -195 c67 -108 121 -200 121 -204
0 -4 -54 -41 -120 -81 -67 -40 -123 -76 -126 -80 -6 -10 92 -164 103 -162 11
2 624 380 636 392 9 9 -87 167 -100 164 -6 -1 -65 -36 -132 -78 -67 -41 -126
-76 -131 -78 -8 -2 -250 376 -250 392 0 3 59 42 130 85 72 44 133 82 135 85 3
6 -78 146 -94 163 -3 3 -141 -78 -307 -180z"/>
<path d="M9843 3182 l-61 -79 300 -238 c294 -232 301 -237 317 -217 9 11 37
48 63 80 l48 60 -295 234 c-163 128 -299 234 -304 236 -4 1 -35 -33 -68 -76z"/>
<path d="M9686 2931 l-69 -70 22 -81 22 -81 -108 -103 c-59 -56 -132 -124
-160 -150 l-53 -48 -79 28 -80 28 -73 -69 c-40 -39 -74 -73 -76 -76 -1 -3 177
-70 397 -148 310 -111 404 -140 418 -132 10 5 47 39 81 74 l64 64 -113 417
c-63 229 -116 416 -119 416 -3 0 -37 -31 -74 -69z m74 -542 c27 -90 48 -165
46 -166 -3 -3 -149 49 -306 109 -24 10 -21 13 90 118 63 60 116 107 118 105 2
-2 25 -76 52 -166z"/>
<path d="M2381 2443 l-224 -217 -102 109 -102 108 -52 -43 -51 -43 67 -71
c273 -286 488 -506 495 -506 5 0 29 19 54 42 l45 42 -108 108 -108 109 65 62
c36 34 139 133 229 220 l164 158 -69 70 c-37 38 -71 69 -74 69 -3 0 -106 -98
-229 -217z"/>
<path d="M2974 1926 c-31 -70 -32 -70 -127 -82 l-59 -7 56 -56 56 -57 -13 -72
c-8 -40 -11 -72 -8 -72 3 0 34 16 68 34 l63 34 65 -35 c74 -39 73 -40 55 58
l-10 53 56 57 56 56 -59 7 c-99 12 -98 12 -128 82 -15 35 -31 64 -35 64 -4 0
-20 -29 -36 -64z"/>
<path d="M8886 1902 l-36 -71 -70 -7 c-38 -3 -70 -9 -70 -12 0 -4 23 -29 50
-57 l50 -51 -13 -72 c-9 -44 -10 -72 -4 -72 5 0 34 14 65 31 l55 32 65 -32
c35 -18 67 -30 69 -27 3 3 0 35 -6 72 l-12 68 58 52 58 52 -79 12 -78 13 -34
70 -33 69 -35 -70z"/>
<path d="M8115 1724 c-71 -35 -210 -102 -307 -150 l-177 -86 28 -57 c16 -31
90 -184 166 -341 75 -157 138 -286 140 -288 1 -1 144 67 318 152 l316 154 -26
60 -25 60 -54 -24 c-29 -13 -99 -47 -156 -75 -57 -28 -136 -67 -176 -85 l-73
-33 -41 84 c-23 46 -40 86 -38 87 3 2 84 41 180 88 96 47 179 88 184 92 9 8
-30 104 -46 114 -4 3 -91 -35 -193 -85 l-185 -90 -40 78 -39 79 215 103 c117
57 214 108 214 114 -1 5 -13 33 -28 61 l-27 51 -130 -63z"/>
<path d="M3742 1688 c-147 -273 -302 -570 -302 -576 0 -4 39 -28 88 -54 l87
-47 175 332 c96 183 175 337 175 342 0 9 -150 94 -167 95 -4 0 -29 -42 -56
-92z"/>
<path d="M4176 1562 c-2 -4 -50 -168 -107 -365 -79 -277 -100 -360 -90 -366
20 -13 172 -53 178 -47 3 3 22 62 42 133 42 142 32 134 127 107 l51 -14 51
-163 52 -163 107 -31 c59 -18 109 -30 112 -28 3 3 -79 240 -113 325 -5 13 7
18 64 27 92 14 139 45 174 114 45 91 31 177 -42 252 -54 56 -104 78 -337 146
-116 34 -222 66 -237 71 -15 5 -29 6 -32 2z m284 -208 c141 -39 190 -75 190
-139 0 -41 -34 -93 -66 -101 -42 -11 -133 3 -225 33 l-87 28 32 107 c24 83 34
107 46 103 8 -2 58 -16 110 -31z"/>
<path d="M7280 1403 c-36 -8 -66 -16 -68 -18 -2 -1 20 -121 48 -265 28 -144
50 -264 48 -265 -2 -2 -131 96 -287 217 l-284 221 -115 -21 c-63 -11 -117 -24
-120 -27 -6 -6 135 -735 143 -744 4 -4 165 26 171 31 1 2 -22 124 -52 272 -30
148 -52 271 -49 274 2 2 131 -96 287 -218 155 -123 290 -225 299 -227 15 -4
218 32 226 40 2 2 -30 170 -70 373 -82 418 -65 384 -177 357z"/>
<path d="M5109 933 c167 -452 135 -406 287 -417 l89 -7 225 352 c124 194 226
355 228 359 4 11 -201 32 -207 21 -3 -4 -78 -124 -165 -265 -88 -141 -163
-253 -167 -249 -4 5 -52 136 -107 293 l-100 285 -63 7 c-35 4 -87 9 -115 12
l-51 6 146 -397z"/>
<path d="M6040 855 l0 -385 100 0 100 0 0 385 0 385 -100 0 -100 0 0 -385z"/>
</g>
</svg>
